<?xml version="1.0" standalone="no"?>
<!DOCTYPE svg PUBLIC "-//W3C//DTD SVG 20010904//EN"
 "http://www.w3.org/TR/2001/REC-SVG-20010904/DTD/svg10.dtd">
<svg version="1.0" xmlns="http://www.w3.org/2000/svg"
 width="850.000000pt" height="850.000000pt" viewBox="0 0 850.000000 850.000000"
 preserveAspectRatio="xMidYMid meet">
<metadata>
Created by potrace 1.14, written by Peter Selinger 2001-2017
</metadata>
<g transform="translate(0.000000,850.000000) scale(0.100000,-0.100000)"
fill="#000000" stroke="none">
<path d="M4058 8325 c-2 -2 -52 -6 -113 -10 -60 -4 -118 -9 -130 -10 -19 -3
-46 -7 -162 -21 -27 -3 -55 -7 -63 -9 -8 -3 -33 -7 -55 -11 -33 -5 -121 -22
-195 -39 -624 -139 -1273 -468 -1760 -893 -98 -86 -339 -327 -421 -422 -268
-310 -498 -678 -659 -1055 -23 -55 -46 -109 -51 -120 -51 -119 -152 -443 -173
-555 -2 -14 -9 -45 -15 -70 -35 -157 -61 -326 -78 -520 -16 -178 -9 -660 12
-825 10 -80 25 -181 29 -201 2 -12 7 -37 10 -55 64 -396 253 -916 466 -1283
93 -161 283 -445 332 -497 7 -8 31 -37 53 -64 39 -49 57 -70 144 -170 148
-168 409 -409 596 -549 383 -289 912 -550 1320 -652 6 -1 54 -14 107 -28 99
-26 319 -69 417 -81 30 -4 61 -8 71 -10 9 -2 56 -6 106 -10 49 -4 100 -9 114
-11 29 -5 466 -5 525 0 22 2 74 7 115 10 41 4 86 9 100 11 14 2 61 9 105 15
345 48 812 183 1121 325 81 37 270 133 308 156 17 10 38 22 46 26 28 13 195
117 275 172 219 149 381 285 585 490 85 86 166 170 180 186 60 72 125 150 130
155 30 30 270 371 270 384 0 3 13 24 29 48 60 91 215 393 266 518 10 25 26 64
36 87 57 130 183 557 203 688 4 22 8 47 11 55 9 33 42 246 50 330 25 260 25
660 0 860 -2 19 -7 60 -10 90 -4 30 -8 64 -10 75 -3 11 -7 38 -10 60 -11 77
-55 286 -85 397 -70 266 -167 521 -290 768 -59 119 -74 147 -143 265 -81 140
-294 442 -374 530 -10 11 -45 52 -78 90 -66 76 -239 251 -326 330 -560 508
-1277 859 -2024 990 -119 21 -228 35 -400 51 -65 6 -502 13 -507 9z"/>
</g>
</svg>
